<?xml version="1.0" standalone="no"?>
<!DOCTYPE svg PUBLIC "-//W3C//DTD SVG 20010904//EN"
 "http://www.w3.org/TR/2001/REC-SVG-20010904/DTD/svg10.dtd">
<svg version="1.0" xmlns="http://www.w3.org/2000/svg"
 width="700.000000pt" height="700.000000pt" viewBox="0 0 700.000000 700.000000"
 preserveAspectRatio="xMidYMid meet">
<metadata>
Created by potrace 1.14, written by Peter Selinger 2001-2017
</metadata>
<g transform="translate(0.000000,700.000000) scale(0.100000,-0.100000)"
fill="#000000" stroke="none">
<path d="M3431 6760 c-96 -20 -167 -87 -197 -187 -51 -167 -7 -437 112 -693
l45 -95 -59 -61 c-71 -75 -124 -179 -153 -301 -52 -216 6 -491 132 -627 21
-24 39 -46 39 -49 0 -2 -17 -8 -37 -11 -105 -19 -264 -87 -357 -153 l-49 -35
-17 22 c-32 43 -185 286 -264 420 -99 169 -217 404 -246 492 -42 126 -10 222
93 273 83 41 168 28 242 -37 57 -51 85 -104 85 -163 0 -91 -76 -185 -150 -185
-21 0 -42 -4 -45 -10 -5 -9 144 -301 166 -325 16 -17 56 37 97 130 21 50 62
130 90 179 61 105 76 166 70 274 -10 172 -131 324 -311 391 -171 63 -345 22
-480 -112 -124 -124 -165 -290 -118 -477 47 -187 182 -414 591 -992 l33 -47
-27 -39 c-14 -21 -41 -66 -59 -99 l-32 -61 -120 52 c-457 201 -827 405 -918
505 -87 97 -70 228 42 306 39 27 50 30 124 30 71 0 88 -4 129 -27 65 -39 93
-87 93 -163 -1 -72 -24 -124 -66 -149 -17 -10 -27 -22 -22 -26 13 -13 314
-180 323 -180 18 0 21 68 6 155 -8 50 -17 137 -21 195 -13 210 -90 337 -249
411 -150 70 -332 56 -472 -37 -177 -118 -249 -376 -158 -573 98 -216 293 -338
982 -616 l257 -104 -4 -118 c-2 -65 -5 -120 -7 -122 -6 -7 -317 -39 -524 -55
-573 -43 -718 -30 -786 73 -66 101 -27 229 88 285 129 63 243 34 298 -75 21
-40 27 -114 10 -124 -5 -3 -10 -13 -10 -22 0 -13 22 -14 183 -8 100 4 186 11
190 15 17 15 -5 51 -77 128 -39 42 -97 111 -128 152 -63 83 -103 118 -177 156
-220 110 -525 -1 -632 -230 -73 -155 -35 -346 92 -473 92 -92 202 -137 375
-153 162 -16 362 5 896 94 l247 41 22 -57 c12 -32 41 -92 65 -134 24 -43 44
-80 44 -84 0 -14 -409 -408 -475 -458 -158 -118 -243 -139 -331 -79 -116 78
-129 251 -25 354 83 83 244 60 272 -39 7 -24 16 -47 20 -51 6 -8 240 175 247
193 4 10 -46 46 -84 61 -16 6 -56 15 -89 19 -32 5 -88 24 -124 42 -60 30 -73
33 -156 33 -102 -1 -150 -18 -225 -83 -125 -106 -183 -312 -136 -475 20 -70
80 -161 142 -216 160 -143 366 -141 587 6 70 46 299 266 460 441 l77 83 30
-21 c16 -12 30 -26 30 -32 0 -10 -108 -181 -314 -498 -100 -154 -101 -155
-101 -216 0 -53 4 -67 25 -89 38 -41 73 -55 138 -55 l59 0 -14 -62 c-36 -166
21 -253 173 -266 l62 -5 -14 -32 c-74 -179 -14 -268 198 -292 l66 -8 -122
-104 -123 -105 254 -515 c140 -284 257 -522 260 -528 3 -7 9 -13 13 -13 4 0
10 6 13 13 3 6 120 244 259 527 l255 516 -123 105 -122 106 67 7 c131 12 212
58 225 130 7 36 -5 106 -28 161 l-14 32 64 6 c128 10 179 62 178 182 -1 38 -6
87 -12 108 l-10 37 59 0 c66 0 101 14 139 55 21 22 25 36 25 89 0 61 -1 62
-101 216 -206 317 -314 488 -314 498 0 6 14 20 30 32 l30 21 77 -83 c161 -175
390 -395 460 -441 221 -147 427 -149 587 -6 62 55 122 146 142 216 60 205 -41
445 -225 535 -37 18 -63 22 -136 23 -83 0 -96 -3 -156 -33 -36 -18 -92 -37
-124 -42 -33 -4 -73 -13 -89 -19 -38 -15 -88 -51 -84 -61 7 -18 241 -201 247
-193 4 4 13 27 20 51 14 50 50 77 116 87 125 18 224 -79 225 -221 0 -81 -30
-138 -94 -181 -125 -85 -251 -16 -598 325 -114 113 -208 208 -208 212 0 4 20
41 44 84 24 42 53 102 65 134 l22 57 247 -41 c534 -89 734 -110 896 -94 181
17 290 64 385 165 84 90 115 169 115 296 1 90 -1 99 -36 170 -111 225 -412
333 -627 225 -79 -39 -116 -71 -178 -155 -32 -42 -90 -111 -129 -153 -72 -77
-94 -113 -77 -128 4 -4 90 -11 191 -15 160 -6 182 -5 182 8 0 9 -4 19 -10 22
-17 10 -11 84 10 124 55 109 169 138 298 75 115 -56 154 -184 88 -285 -68
-103 -213 -116 -786 -73 -207 16 -518 48 -524 55 -2 2 -5 57 -7 122 l-4 118
256 104 c690 278 885 401 983 616 95 207 14 470 -184 590 -168 103 -416 78
-559 -56 -92 -86 -125 -168 -136 -336 -4 -57 -13 -144 -21 -194 -15 -86 -12
-155 5 -155 10 0 312 167 324 179 5 5 -5 17 -22 27 -42 25 -65 77 -66 149 0
76 28 124 93 163 41 23 58 27 129 27 74 0 85 -3 124 -30 112 -79 129 -209 41
-307 -83 -92 -428 -284 -849 -473 l-187 -84 -33 61 c-18 34 -45 79 -59 100
l-27 39 33 47 c409 578 544 805 591 992 47 188 6 353 -119 478 -107 107 -246
156 -383 135 -157 -25 -301 -128 -369 -266 -27 -55 -34 -84 -38 -149 -6 -108
9 -169 70 -274 28 -49 69 -129 90 -179 41 -93 81 -147 97 -130 22 24 171 316
166 325 -3 6 -24 10 -45 10 -74 0 -150 94 -150 185 0 114 120 225 242 225 51
0 131 -44 163 -91 60 -86 44 -170 -80 -419 -95 -192 -330 -588 -415 -700 l-17
-22 -49 35 c-93 66 -252 134 -356 153 -21 3 -38 9 -38 11 0 3 18 25 39 49 152
164 196 502 98 736 -40 96 -68 139 -123 196 l-55 57 40 85 c89 188 135 367
135 535 1 127 -16 197 -64 262 -55 75 -181 115 -289 93z m103 -1193 c34 -44
71 -129 86 -199 19 -82 8 -237 -20 -313 -26 -68 -85 -165 -100 -165 -15 0 -74
97 -100 165 -28 76 -39 231 -20 313 21 97 92 232 120 232 5 0 20 -15 34 -33z
m124 -983 c304 -61 545 -296 619 -602 9 -41 16 -110 16 -177 0 -220 -80 -413
-232 -563 -445 -438 -1191 -223 -1338 386 -21 88 -21 266 0 354 102 422 515
688 935 602z m-348 -1769 c28 -28 33 -83 10 -111 -8 -9 -34 -26 -57 -36 l-43
-19 0 -129 0 -130 98 0 98 0 38 -105 c21 -58 41 -105 43 -105 4 0 17 31 57
138 l28 72 99 0 100 0 -3 132 -3 132 -32 8 c-38 10 -83 61 -83 94 0 37 27 72
68 85 30 10 40 9 68 -6 36 -19 110 -107 210 -251 l64 -92 -285 -433 -286 -432
-80 119 c-44 65 -172 260 -286 432 l-206 313 59 87 c87 128 171 230 207 253
39 24 82 19 117 -16z m305 -1632 l115 -76 -28 -47 c-15 -25 -65 -112 -112
-193 -47 -80 -88 -146 -91 -147 -7 0 -229 372 -229 383 0 6 220 157 228 157 1
0 54 -34 117 -77z"/>
<path d="M3314 4490 c-120 -31 -225 -92 -314 -181 -62 -62 -88 -108 -68 -121
33 -21 192 21 296 79 106 58 245 204 226 235 -8 13 -64 8 -140 -12z"/>
<path d="M3546 4502 c-19 -31 120 -177 226 -235 105 -58 263 -100 297 -78 42
27 -111 182 -252 253 -93 47 -257 83 -271 60z"/>
<path d="M3482 4447 c-35 -41 -72 -194 -72 -293 0 -115 55 -299 89 -299 35 0
91 183 91 299 0 77 -26 202 -52 255 -25 49 -39 59 -56 38z"/>
<path d="M2930 4130 c0 -50 134 -179 245 -237 128 -66 285 -97 285 -55 0 23
-66 102 -127 153 -67 56 -135 93 -225 123 -77 26 -178 35 -178 16z"/>
<path d="M3890 4114 c-127 -43 -230 -113 -310 -211 -53 -63 -53 -83 1 -83 107
0 279 75 377 164 60 55 112 121 112 143 0 22 -97 15 -180 -13z"/>
<path d="M2851 4068 c-32 -67 -51 -165 -51 -263 0 -136 48 -305 86 -305 18 0
47 63 69 145 20 77 20 243 0 320 -20 77 -53 145 -70 145 -7 0 -22 -19 -34 -42z"/>
<path d="M4080 4067 c-68 -153 -68 -371 0 -524 10 -24 25 -43 34 -43 38 0 86
169 86 305 0 134 -49 305 -87 305 -8 0 -23 -19 -33 -43z"/>
<path d="M3305 3771 c-159 -45 -375 -214 -375 -292 0 -21 128 -4 211 28 94 37
170 87 239 157 54 55 79 91 80 114 0 18 -82 14 -155 -7z"/>
<path d="M3540 3773 c0 -10 17 -39 38 -65 77 -98 190 -174 315 -213 82 -26
177 -33 177 -14 0 51 -143 185 -254 239 -132 65 -276 92 -276 53z"/>
<path d="M3476 3738 c-66 -104 -83 -329 -36 -481 26 -83 51 -117 73 -98 23 18
52 103 67 191 20 122 0 272 -51 373 -22 43 -33 46 -53 15z"/>
<path d="M2932 3422 c-21 -14 11 -67 78 -132 66 -63 141 -111 232 -147 73 -30
194 -51 208 -37 26 26 -101 166 -212 232 -98 58 -273 106 -306 84z"/>
<path d="M3975 3420 c-66 -13 -155 -48 -214 -82 -110 -66 -237 -206 -211 -232
14 -14 135 7 208 37 92 37 166 85 232 149 118 114 113 153 -15 128z"/>
</g>
</svg>
