<svg width="77" height="4" viewBox="0 0 77 4" fill="none" xmlns="http://www.w3.org/2000/svg">
<path d="M38.0034 0.881252C37.3867 0.881252 36.8841 1.3812 36.8841 1.99775C36.8841 2.61512 37.3871 3.11834 38.0034 3.11834C38.6115 3.11834 39.1145 2.61512 39.1145 1.99775C39.1145 1.38079 38.6115 0.881252 38.0034 0.881252ZM38.0034 4C36.9001 4 36 3.10075 36 1.99816C36 0.89598 36.9005 1.61629e-07 38.0034 1.61629e-07C39.1067 1.61629e-07 39.9986 0.89598 39.9986 1.99816C39.9986 3.10075 39.1063 4 38.0034 4V4Z" fill="#FFDD9A"/>
<path d="M34 1L17.7661 1.10926L8.88333 1.24893L0 1.49786L8.88333 1.74727L17.7661 1.89074L34 2V1Z" fill="#FFDD9A"/>
<path d="M67.8561 1.24893L58.7119 1.10546L42 1V2L58.7119 1.89074L67.8561 1.75012L77 1.49786L67.8561 1.24893Z" fill="#FFDD9A"/>
</svg>
