<svg width="559" height="713" viewBox="0 0 559 713" fill="none" xmlns="http://www.w3.org/2000/svg">
<path fill-rule="evenodd" clip-rule="evenodd" d="M263.825 220.629C259.165 216.591 254.769 210.962 251.249 204.142C245.93 193.837 242.047 180.42 242.047 165.819C242.047 151.219 245.93 137.803 251.249 127.499C256.193 117.922 262.13 111.237 268.209 107.592C246.122 70.1395 232.596 0 279.502 0C326.407 0 312.881 70.1395 290.794 107.592C296.873 111.236 302.811 117.922 307.755 127.499C313.073 137.803 316.957 151.219 316.957 165.819C316.957 180.42 313.073 193.837 307.755 204.142C304.234 210.962 299.839 216.591 295.179 220.629C313.691 223.433 330.599 231.126 344.541 242.35C356.427 224.449 382.396 184.199 396.76 152.874C406.958 130.633 405.026 125.156 400.259 117.394C391.489 105.063 376.94 106.478 369.319 110.987C356.671 119.098 351.407 131.699 358.969 143.376C369.919 157.977 374.26 150.604 378.237 153.605L358.745 190.269C349.869 185.231 351.51 175.742 339.322 156.548C303.643 103.025 383.189 47.0226 423.833 102.093C439.823 126.185 432.318 152.431 415.181 181.891C402.519 203.658 370.808 248.033 362.064 260.336C367.166 267.024 371.474 274.351 374.845 282.176C395.293 273.307 443.362 252.263 472.21 233.848C492.84 220.678 494.185 215.028 494.387 205.923C493.701 190.81 480.706 184.12 471.855 183.783C456.827 183.751 445.572 191.491 445.597 205.4C446.884 223.602 454.53 219.756 456.245 224.431L419.985 244.691C415.256 235.65 421.78 228.563 421.943 205.83C420.974 141.525 518.192 137.534 522.494 205.83C522.873 234.738 502.335 252.733 471.96 268.212C449.476 279.67 396.37 300.638 381.913 306.393C382.801 311.85 383.263 317.448 383.263 323.156C383.263 326.296 383.123 329.404 382.85 332.473C405.116 335.479 458.81 340.972 493.444 340.812C518.153 340.698 522.348 336.852 527.433 329.662C534.999 317.21 527.52 305.278 520.15 300.531C507.343 292.904 493.563 293.411 486.081 304.564C477.36 319.796 485.959 320.582 484.901 325.194L443.03 323.082C443.872 313.448 453.262 311.072 465.664 292.945C499.527 240.945 584.638 286.922 551.466 343.804C536.195 367.151 508.962 371.176 474.693 368.212C449.152 366.002 393.379 356.084 378.739 353.527C375.446 364.291 370.447 374.311 364.058 383.272C377.337 395.755 403.718 427.131 426.977 440.851C443.723 450.729 449.76 444.592 455.706 440.248C465.166 432.226 464.269 418.589 460.941 411.388C454.942 399.43 447.539 396.403 434.874 399.125C422.039 403.12 427.039 411.176 423.321 414.854L395.59 392.176C410.437 379.302 418.311 386.784 427.213 379.845C470.997 354.899 514.169 425.331 467.024 462.54C448.555 477.143 424.324 473.438 402.188 456.958C385.896 444.829 355.724 411.225 347.076 401.852C344.72 403.875 342.271 405.793 339.738 407.6C354.147 429.612 370.474 456.036 384.272 476.64C391.84 492.384 380.7 505.495 361.369 500.937C369.563 528.357 360.505 539.475 337.171 537.104C350.011 563.591 339.538 572.827 309.993 573.713L337.199 597.146L279.499 712.831L221.8 597.146L249.006 573.713C219.462 572.827 208.988 563.592 221.828 537.104C198.494 539.475 189.436 528.357 197.63 500.937C178.3 505.495 167.16 492.384 174.727 476.64C188.526 456.036 204.852 429.612 219.261 407.6C216.729 405.793 214.28 403.875 211.924 401.852C203.276 411.225 173.103 444.829 156.812 456.958C134.676 473.438 110.445 477.143 91.9765 462.54C44.8313 425.332 88.0034 354.9 131.788 379.845C140.689 386.784 148.563 379.301 163.409 392.176L135.679 414.854C131.962 411.177 136.961 403.12 124.127 399.125C111.461 396.403 104.057 399.429 98.0582 411.388C94.7313 418.588 93.8351 432.226 103.295 440.248C109.24 444.592 115.277 450.729 132.023 440.851C155.282 427.13 181.664 395.755 194.943 383.272C188.554 374.311 183.555 364.291 180.261 353.527C165.621 356.084 109.849 366.002 84.3076 368.212C50.0383 371.176 22.8047 367.151 7.53398 343.804C-25.6387 286.922 59.473 240.945 93.3357 292.945C105.738 311.072 115.128 313.448 115.97 323.082L74.0989 325.194C73.0409 320.582 81.6396 319.796 72.9192 304.564C65.4363 293.411 51.6568 292.904 38.8503 300.531C31.4803 305.278 24.0002 317.21 31.5675 329.662C36.6523 336.852 40.8474 340.698 65.5561 340.812C100.191 340.972 153.884 335.479 176.15 332.473C175.877 329.404 175.737 326.296 175.737 323.156C175.737 317.448 176.199 311.85 177.087 306.393C162.631 300.639 109.524 279.67 87.04 268.212C56.6655 252.733 36.1273 234.738 36.5059 205.83C40.8073 137.534 138.026 141.525 137.057 205.83C137.22 228.563 143.744 235.65 139.015 244.691L102.755 224.431C104.471 219.756 112.116 223.602 113.404 205.4C113.428 191.491 102.173 183.751 87.1449 183.783C78.2945 184.12 65.2992 190.81 64.6128 205.923C64.8157 215.028 66.1604 220.678 86.7906 233.848C115.638 252.263 163.708 273.308 184.155 282.176C187.526 274.351 191.834 267.025 196.936 260.336C188.192 248.033 156.481 203.658 143.819 181.891C126.682 152.432 119.177 126.185 135.168 102.093C175.811 47.0222 255.356 103.025 219.678 156.548C207.49 175.742 209.131 185.231 200.254 190.269L180.763 153.605C184.74 150.604 189.08 157.977 200.031 143.376C207.593 131.699 202.329 119.098 189.681 110.987C182.06 106.478 167.511 105.063 158.741 117.394C153.975 125.156 152.042 130.633 162.24 152.874C176.603 184.199 202.573 224.449 214.459 242.35C228.401 231.126 245.309 223.433 263.822 220.629H263.825ZM279.294 560.79L216.856 466.61C222.494 458.809 241.037 429.088 248.802 427.805C262.122 425.604 269.586 445.181 248.769 448.865L248.751 477.695L270.335 477.643L279.294 501.837L288.253 477.643L309.837 477.695L309.819 448.865C289.003 445.182 296.466 425.604 309.786 427.805C317.552 429.088 336.095 458.809 341.732 466.61L279.295 560.79H279.294ZM279.176 660.728L253.673 617.452L279.176 600.491L304.679 617.452L279.176 660.728V660.728ZM340.98 261.713C325.247 245.988 303.511 236.262 279.502 236.262C255.492 236.262 233.756 245.988 218.023 261.713C202.289 277.436 192.558 299.16 192.558 323.157C192.558 347.153 202.289 368.877 218.023 384.601C233.756 400.325 255.492 410.051 279.502 410.051C303.511 410.051 325.248 400.325 340.981 384.601C356.714 368.876 366.445 347.152 366.445 323.157C366.445 299.16 356.714 277.436 340.98 261.713V261.713ZM279.501 251.04C281.99 251.04 289.248 266.122 289.248 284.727C289.248 303.332 282.056 318.414 279.501 318.414C276.948 318.414 269.755 303.332 269.755 284.727C269.755 266.122 277.013 251.04 279.501 251.04ZM279.459 327.9C281.947 327.9 289.205 342.982 289.205 361.586C289.205 380.192 282.013 395.274 279.459 395.274C276.905 395.274 269.712 380.192 269.712 361.586C269.712 342.982 276.97 327.9 279.459 327.9ZM284.266 247.295C285.51 245.141 302.208 246.4 318.329 255.703C334.451 265.005 343.923 278.772 342.646 280.982C341.37 283.192 324.704 281.876 308.583 272.574C292.462 263.272 283.023 249.449 284.266 247.295V247.295ZM216.352 281.007C217.595 283.161 234.294 281.901 250.415 272.599C266.536 263.297 276.008 249.531 274.732 247.32C273.455 245.11 256.79 246.425 240.669 255.728C224.548 265.03 215.108 278.853 216.352 281.007ZM274.737 399.019C273.493 401.173 256.795 399.913 240.674 390.611C224.552 381.309 215.08 367.542 216.357 365.332C217.634 363.122 234.299 364.437 250.42 373.74C266.541 383.042 275.981 396.865 274.737 399.019V399.019ZM342.652 365.307C341.408 363.153 324.71 364.412 308.588 373.715C292.467 383.017 282.995 396.783 284.271 398.994C285.548 401.204 302.213 399.888 318.334 390.586C334.456 381.283 343.895 367.461 342.652 365.307ZM346.567 289.47C349.056 289.47 356.314 304.552 356.314 323.157C356.314 341.762 349.121 356.844 346.567 356.844C344.014 356.844 336.822 341.762 336.822 323.157C336.822 304.552 344.08 289.47 346.567 289.47ZM212.436 289.47C214.924 289.47 222.182 304.552 222.182 323.157C222.182 341.762 214.989 356.844 212.436 356.844C209.882 356.844 202.689 341.762 202.689 323.157C202.689 304.552 209.947 289.47 212.436 289.47ZM217.001 287.08C218.245 284.926 234.943 286.185 251.064 295.488C267.185 304.79 276.658 318.556 275.381 320.767C274.105 322.977 257.439 321.662 241.318 312.359C225.197 303.057 215.757 289.234 217.001 287.08V287.08ZM283.579 325.547C284.823 323.393 301.521 324.652 317.643 333.954C333.764 343.257 343.236 357.023 341.959 359.234C340.682 361.444 324.018 360.128 307.896 350.826C291.775 341.524 282.335 327.701 283.579 325.547ZM341.981 287.117C343.225 289.271 333.785 303.094 317.664 312.397C301.543 321.699 284.878 323.014 283.601 320.804C282.324 318.594 291.796 304.828 307.918 295.525C324.039 286.223 340.736 284.964 341.981 287.117ZM275.36 325.51C276.604 327.663 267.164 341.486 251.043 350.789C234.922 360.091 218.257 361.407 216.98 359.197C215.703 356.986 225.176 343.22 241.296 333.917C257.418 324.615 274.115 323.357 275.36 325.51ZM279.502 204.818C278.155 204.818 275.005 200.517 271.494 193.714C267.67 186.306 264.878 176.562 264.878 165.819C264.878 155.079 267.67 145.335 271.494 137.927C275.006 131.122 278.155 126.821 279.502 126.821C280.848 126.821 283.997 131.122 287.51 137.927C291.333 145.335 294.125 155.079 294.125 165.819C294.125 176.562 291.333 186.306 287.51 193.714C283.998 200.517 280.849 204.818 279.502 204.818Z" fill="black"/>
</svg>
