<svg width="1403" height="100" viewBox="0 0 1403 100" fill="none" xmlns="http://www.w3.org/2000/svg">
<path fill-rule="evenodd" clip-rule="evenodd" d="M748.415 44.8466C755.478 105.043 661.898 116.021 655.868 53.9979C651.61 10.195 703.722 -11.4661 732.742 14.3404C733.532 15.0436 734.672 16.3708 735.42 17.1596C736.259 18.0426 737.329 19.0594 738.112 19.9671C740.09 22.2586 741.629 24.9665 743.012 27.6049C745.769 32.8634 747.65 38.322 748.415 44.8466V44.8466ZM710.421 98.169C775.597 86.9702 757.757 -11.2446 693.038 1.06521C629.351 13.1791 646.475 109.156 710.421 98.169Z" fill="#FFDD9A"/>
<path fill-rule="evenodd" clip-rule="evenodd" d="M702.164 86.3622C700.893 86.3622 697.186 78.657 697.186 69.1536C697.186 59.6491 700.86 51.9449 702.164 51.9449C703.468 51.9449 707.142 59.6491 707.142 69.1536C707.142 78.658 703.435 86.3622 702.164 86.3622V86.3622Z" fill="#FFDD9A"/>
<path fill-rule="evenodd" clip-rule="evenodd" d="M702.291 46.8929C701.02 46.8929 697.313 39.1887 697.313 29.6843C697.313 20.1798 700.987 12.4757 702.291 12.4757C703.595 12.4757 707.269 20.1809 707.269 29.6843C707.269 39.1887 703.562 46.8929 702.291 46.8929V46.8929Z" fill="#FFDD9A"/>
<path fill-rule="evenodd" clip-rule="evenodd" d="M699.731 88.275C699.096 89.3752 690.566 88.7319 682.332 83.9797C674.097 79.2275 669.258 72.1955 669.911 71.0663C670.563 69.9371 679.076 70.6093 687.31 75.3615C695.544 80.1138 700.366 87.1757 699.731 88.275Z" fill="#FFDD9A"/>
<path fill-rule="evenodd" clip-rule="evenodd" d="M734.421 71.0536C733.785 69.9533 725.256 70.5966 717.021 75.3488C708.787 80.101 703.948 87.133 704.6 88.2622C705.252 89.3914 713.765 88.7192 722 83.967C730.234 79.2148 735.056 72.1539 734.421 71.0536Z" fill="#FFDD9A"/>
<path fill-rule="evenodd" clip-rule="evenodd" d="M704.598 10.7676C705.234 9.66733 713.763 10.3106 721.997 15.0628C730.232 19.815 735.069 26.847 734.417 27.9762C733.765 29.1054 725.253 28.4332 717.018 23.681C708.784 18.9288 703.962 11.8668 704.597 10.7676H704.598Z" fill="#FFDD9A"/>
<path fill-rule="evenodd" clip-rule="evenodd" d="M669.908 27.989C670.544 29.0893 679.073 28.4461 687.308 23.6938C695.542 18.9416 700.38 11.9096 699.728 10.7804C699.076 9.65124 690.564 10.3234 682.328 15.0756C674.094 19.8278 669.272 26.8887 669.907 27.989H669.908Z" fill="#FFDD9A"/>
<path fill-rule="evenodd" clip-rule="evenodd" d="M667.908 66.7303C666.637 66.7303 662.93 59.0262 662.93 49.5217C662.93 40.0173 666.604 32.3131 667.908 32.3131C669.212 32.3131 672.886 40.0173 672.886 49.5217C672.886 59.0262 669.179 66.7303 667.908 66.7303Z" fill="#FFDD9A"/>
<path fill-rule="evenodd" clip-rule="evenodd" d="M736.421 66.7303C735.15 66.7303 731.443 59.0262 731.443 49.5217C731.443 40.0173 735.117 32.3131 736.421 32.3131C737.725 32.3131 741.399 40.0173 741.399 49.5217C741.399 59.0262 737.692 66.7303 736.421 66.7303Z" fill="#FFDD9A"/>
<path fill-rule="evenodd" clip-rule="evenodd" d="M734.089 67.9506C733.453 69.0509 724.924 68.4076 716.69 63.6554C708.455 58.9032 703.617 51.8712 704.269 50.742C704.921 49.6128 713.434 50.285 721.669 55.0372C729.903 59.7894 734.725 66.8503 734.09 67.9506H734.089Z" fill="#FFDD9A"/>
<path fill-rule="evenodd" clip-rule="evenodd" d="M700.081 48.3006C699.446 49.4009 690.918 48.7576 682.682 44.0054C674.448 39.2532 669.609 32.2211 670.261 31.092C670.913 29.9628 679.426 30.6349 687.66 35.3872C695.895 40.1394 700.716 47.2014 700.08 48.3006H700.081Z" fill="#FFDD9A"/>
<path fill-rule="evenodd" clip-rule="evenodd" d="M670.251 67.9323C669.615 66.832 674.437 59.77 682.671 55.0188C690.906 50.2666 699.419 49.5945 700.071 50.7237C700.723 51.8529 695.884 58.8859 687.65 63.6371C679.415 68.3893 670.886 69.0326 670.25 67.9323H670.251Z" fill="#FFDD9A"/>
<path fill-rule="evenodd" clip-rule="evenodd" d="M704.28 48.3187C703.644 47.2184 708.466 40.1564 716.7 35.4052C724.935 30.653 733.448 29.9808 734.1 31.11C734.752 32.2392 729.913 39.2712 721.679 44.0234C713.444 48.7757 704.915 49.4189 704.279 48.3187H704.28Z" fill="#FFDD9A"/>
<path fill-rule="evenodd" clip-rule="evenodd" d="M780.258 85.4032C779.601 83.62 780.585 84.7289 778.794 83.9647C772.832 97.6626 745.929 94.776 748.924 74.1113C750.057 66.2947 755.801 61.8978 763.095 59.6609C772.777 56.6907 775.689 54.7813 782.601 50.013C781.279 52.5914 781.011 51.9953 779.6 53.924C778.52 55.3989 777.833 57.3329 777.862 59.6491C777.919 64.1905 780.73 66.7432 783.201 67.9858C780.778 57.136 784.651 59.4179 789.294 54.2686C793.789 49.2841 791.584 43.514 791.109 36.2391L790.476 37.3661C790.444 37.4357 789.783 38.9459 789.749 39.0358C788.445 42.4384 788.611 43.711 785.872 46.2444C788.982 39.2617 792.932 32.3313 789.994 22.0177C787.613 13.6606 782.306 8.22343 776.371 4.77379C763.466 -2.72702 743.512 -1.69633 736.031 17.3201L741.166 18.6569C734.374 11.8069 751.379 -5.01003 774.111 5.58615C780.824 8.71469 784.786 13.1576 787.688 19.9349C791.687 29.2745 788.448 35.6086 785.893 43.2004L785.147 40.0109C780.685 46.7989 776.815 41.0641 770.957 40.7205C765.058 40.3748 761.863 45.1035 761.775 50.8864C764.342 48.9866 766.967 46.5516 772.232 47.5877C780.811 49.2766 778.831 48.0704 784.046 45.1527C774.464 60.4465 752.175 54.3136 747.798 72.3142C744.06 87.6872 758.444 97.6926 770.933 92.6107C775.575 90.7216 777.525 87.8221 780.259 85.4032H780.258Z" fill="#FFDD9A"/>
<path fill-rule="evenodd" clip-rule="evenodd" d="M845.89 22.4511C846.479 31.4996 844.9 33.453 836.369 34.0202C822.96 34.9129 830.69 50.15 842.197 43.2764C849.658 38.8196 851.753 27.9793 845.89 22.4511Z" fill="#FFDD9A"/>
<path fill-rule="evenodd" clip-rule="evenodd" d="M780.258 85.4032C778.449 91.2129 779.008 91.519 782.612 94.7953H785.595C786.445 94.0568 793.417 88.7383 794.212 88.535C798.695 87.3865 801.893 91.7609 803.871 94.0193C803.524 88.0887 800.549 84.0086 795.926 82.0595C788.376 78.8764 784.053 82.8034 780.258 85.4032Z" fill="#FFDD9A"/>
<path fill-rule="evenodd" clip-rule="evenodd" d="M865 54.9482V53.0613C863.46 50.1329 862.402 42.3656 852.094 41.9899C848.109 41.8443 845.53 42.9575 843.141 44.9643C840.072 47.5416 839.904 49.9081 841.126 54.2311C851.66 59.2937 853.275 42.3955 862.409 52.1633C863.984 53.8469 862.974 53.4252 865 54.9482V54.9482Z" fill="#FFDD9A"/>
<path fill-rule="evenodd" clip-rule="evenodd" d="M786.209 62.1377C784.861 63.8288 784.943 66.7839 784.588 68.2685C782.698 76.1642 776.288 70.1758 768.815 75.8549C767.143 89.2531 785.271 85.1645 787.91 73.0036C788.852 68.6634 787.177 65.5156 786.208 62.1387L786.209 62.1377Z" fill="#FFDD9A"/>
<path fill-rule="evenodd" clip-rule="evenodd" d="M765.889 22.2961C768.747 14.7289 765.319 9.56784 759.62 7.12858C752.168 3.93902 748.273 6.73148 743.3 9.85361C748.686 9.13864 754.673 7.69262 757.521 12.8601C758.847 15.2641 759.167 18.3456 757.932 20.7527C756.787 22.9843 754.87 23.3504 753.446 24.212C752.257 24.9312 753.027 24.2098 752.134 25.2416C758.733 27.5974 762.47 26.9113 765.891 22.2961H765.889Z" fill="#FFDD9A"/>
<path fill-rule="evenodd" clip-rule="evenodd" d="M765.889 22.2962C758.078 40.3824 792.638 43.3622 786.699 18.7577C784.18 23.0978 786.815 27.3641 777.927 28.4922C769.731 29.5315 767.96 24.4603 767.064 23.3579C765.918 21.9472 767.665 23.2851 765.889 22.2972V22.2962Z" fill="#FFDD9A"/>
<path fill-rule="evenodd" clip-rule="evenodd" d="M794.168 0.954956C797.607 13.8588 783.268 4.33288 776.46 3.56867C777.015 4.1809 776.901 4.06531 777.724 4.75031L778.583 5.41179C784.6 9.89216 788.93 14.8231 793.316 14.9955C801.635 15.324 803.577 2.85266 794.169 0.953911L794.168 0.954956Z" fill="#FFDD9A"/>
<path fill-rule="evenodd" clip-rule="evenodd" d="M790.93 19.6717C792.348 23.8256 797.315 27.5407 802.538 28.7929C810.781 30.7698 811.422 29.4897 815.188 36.4703C818.954 20.5579 805.764 25.6719 790.93 19.6717Z" fill="#FFDD9A"/>
<path fill-rule="evenodd" clip-rule="evenodd" d="M861.874 19.7358C859.025 26.9765 859.748 31.1015 851.071 32.3142C850.898 36.588 849.997 36.8256 848.966 40.2977C851.428 39.7037 854.276 39.6416 857.024 40.1072C860.883 35.1281 865.94 28.8196 861.874 19.7368V19.7358Z" fill="#FFDD9A"/>
<path fill-rule="evenodd" clip-rule="evenodd" d="M810.4 74.6531C806.337 69.371 798.935 68.0673 791.079 70.9529L790.22 72.4343C788.937 75.2524 789.6 75.4611 786.947 78.8166C789.669 78.9087 792.595 79.1827 794.667 79.6322C800.265 73.9777 799.77 73.1482 810.4 74.6531Z" fill="#FFDD9A"/>
<path fill-rule="evenodd" clip-rule="evenodd" d="M840.641 45.7223C834.816 46.9906 810.676 63.3098 793.897 34.6016C792.297 31.8637 794.262 32.6044 791.095 32.5188C801.255 52.9148 818.115 58.0834 837.853 48.3328C841.424 46.5689 839.468 48.3949 840.641 45.7212V45.7223Z" fill="#FFDD9A"/>
<path fill-rule="evenodd" clip-rule="evenodd" d="M797.479 44.1808C798.746 49.4029 802.427 52.114 801.29 56.9776L796.766 58.2095C800.033 63.9036 808.464 61.7662 807.534 55.4952C807.136 52.8172 800.119 45.7253 797.479 44.1808V44.1808Z" fill="#FFDD9A"/>
<path fill-rule="evenodd" clip-rule="evenodd" d="M827.285 65.1057C830.159 58.0405 825.41 53.0132 817.173 54.1884C822.714 57.5738 824.677 59.0765 821.893 65.8784L827.284 65.1057H827.285Z" fill="#FFDD9A"/>
<path fill-rule="evenodd" clip-rule="evenodd" d="M812.609 37.7407C811.085 40.3127 811.808 41.1701 809.01 42.4245C806.666 43.4755 804.417 43.1523 801.911 42.6107C807.059 52.2147 820.111 42.4737 812.609 37.7407V37.7407Z" fill="#FFDD9A"/>
<path fill-rule="evenodd" clip-rule="evenodd" d="M623.742 85.4033C624.399 83.6201 623.415 84.729 625.207 83.9648C631.168 97.6627 658.072 94.7761 655.077 74.1114C653.944 66.2948 648.199 61.898 640.906 59.661C631.224 56.6909 628.311 54.7814 621.399 50.0131C622.721 52.5915 622.989 51.9954 624.4 53.9241C625.48 55.399 626.167 57.3331 626.138 59.6492C626.082 64.1906 623.271 66.7433 620.799 67.986C623.223 57.1361 619.349 59.418 614.706 54.2687C610.211 49.2843 612.416 43.5142 612.891 36.2392L613.524 37.3662C613.556 37.4358 614.217 38.946 614.251 39.0359C615.556 42.4385 615.39 43.7111 618.129 46.2445C615.018 39.2618 611.068 32.3314 614.006 22.0178C616.388 13.6608 621.694 8.22355 627.629 4.77391C640.534 -2.72689 660.488 -1.6962 667.969 17.3202L662.835 18.657C669.627 11.807 652.621 -5.0099 629.889 5.58627C623.176 8.71482 619.215 13.1577 616.313 19.935C612.313 29.2746 615.552 35.6088 618.107 43.2005L618.854 40.011C623.316 46.799 627.186 41.0642 633.043 40.7206C638.942 40.3749 642.137 45.1036 642.225 50.8865C639.658 48.9867 637.034 46.5517 631.769 47.5878C623.189 49.2767 625.169 48.0705 619.954 45.1528C629.536 60.4466 651.826 54.3137 656.202 72.3143C659.94 87.6873 645.556 97.6927 633.067 92.6108C628.426 90.7217 626.476 87.8222 623.741 85.4033H623.742Z" fill="#FFDD9A"/>
<path fill-rule="evenodd" clip-rule="evenodd" d="M558.111 22.4512C557.522 31.4997 559.1 33.4531 567.631 34.0204C581.041 34.913 573.311 50.1501 561.803 43.2765C554.343 38.8197 552.247 27.9794 558.111 22.4512Z" fill="#FFDD9A"/>
<path fill-rule="evenodd" clip-rule="evenodd" d="M623.742 85.4033C625.552 91.213 624.993 91.5192 621.388 94.7954H618.405C617.555 94.0569 610.583 88.7385 609.788 88.5351C605.305 87.3866 602.107 91.761 600.13 94.0194C600.477 88.0888 603.451 84.0087 608.074 82.0597C615.624 78.8765 619.947 82.8035 623.742 85.4033Z" fill="#FFDD9A"/>
<path fill-rule="evenodd" clip-rule="evenodd" d="M539 54.9484V53.0614C540.54 50.133 541.598 42.3657 551.906 41.99C555.891 41.8444 558.47 42.9576 560.859 44.9644C563.928 47.5418 564.096 49.9082 562.875 54.2313C552.34 59.2939 550.725 42.3956 541.591 52.1634C540.016 53.847 541.026 53.4253 539 54.9484V54.9484Z" fill="#FFDD9A"/>
<path fill-rule="evenodd" clip-rule="evenodd" d="M617.791 62.1378C619.14 63.8289 619.057 66.7841 619.413 68.2686C621.303 76.1643 627.712 70.1759 635.185 75.855C636.857 89.2533 618.729 85.1646 616.09 73.0037C615.149 68.6635 616.823 65.5157 617.792 62.1389L617.791 62.1378Z" fill="#FFDD9A"/>
<path fill-rule="evenodd" clip-rule="evenodd" d="M638.111 22.2961C635.253 14.7289 638.682 9.56784 644.38 7.12858C651.832 3.93902 655.728 6.73148 660.7 9.85361C655.314 9.13864 649.328 7.69262 646.479 12.8601C645.154 15.2641 644.833 18.3456 646.068 20.7527C647.214 22.9843 649.13 23.3504 650.555 24.212C651.743 24.9312 650.973 24.2098 651.866 25.2416C645.267 27.5974 641.53 26.9113 638.11 22.2961H638.111Z" fill="#FFDD9A"/>
<path fill-rule="evenodd" clip-rule="evenodd" d="M638.111 22.2963C645.922 40.3825 611.362 43.3623 617.301 18.7578C619.821 23.0979 617.185 27.3642 626.073 28.4924C634.269 29.5316 636.04 24.4605 636.936 23.358C638.082 21.9473 636.336 23.2852 638.111 22.2973V22.2963Z" fill="#FFDD9A"/>
<path fill-rule="evenodd" clip-rule="evenodd" d="M609.832 0.954956C606.393 13.8588 620.732 4.33288 627.54 3.56867C626.985 4.1809 627.099 4.06531 626.276 4.75031L625.418 5.41179C619.4 9.89216 615.071 14.8231 610.685 14.9955C602.366 15.324 600.423 2.85266 609.831 0.953911L609.832 0.954956Z" fill="#FFDD9A"/>
<path fill-rule="evenodd" clip-rule="evenodd" d="M613.07 19.6718C611.653 23.8257 606.685 27.5408 601.462 28.7931C593.219 30.7699 592.578 29.4898 588.812 36.4705C585.046 20.558 598.237 25.672 613.07 19.6718Z" fill="#FFDD9A"/>
<path fill-rule="evenodd" clip-rule="evenodd" d="M542.127 19.7359C544.975 26.9766 544.252 31.1017 552.929 32.3143C553.102 36.5881 554.003 36.8257 555.034 40.2979C552.572 39.7038 549.724 39.6417 546.976 40.1073C543.117 35.1282 538.06 28.8197 542.127 19.737V19.7359Z" fill="#FFDD9A"/>
<path fill-rule="evenodd" clip-rule="evenodd" d="M593.6 74.6532C597.664 69.3711 605.065 68.0675 612.922 70.9531L613.78 72.4344C615.063 75.2526 614.4 75.4613 617.054 78.8167C614.332 78.9088 611.405 79.1828 609.333 79.6323C603.735 73.9778 604.23 73.1483 593.6 74.6532Z" fill="#FFDD9A"/>
<path fill-rule="evenodd" clip-rule="evenodd" d="M563.36 45.7224C569.184 46.9907 593.324 63.3099 610.103 34.6017C611.703 31.8639 609.738 32.6045 612.906 32.5189C602.746 52.9149 585.885 58.0835 566.147 48.3329C562.576 46.569 564.532 48.395 563.36 45.7213V45.7224Z" fill="#FFDD9A"/>
<path fill-rule="evenodd" clip-rule="evenodd" d="M606.521 44.181C605.255 49.403 601.573 52.1142 602.71 56.9777L607.234 58.2096C603.967 63.9037 595.536 61.7663 596.467 55.4953C596.864 52.8174 603.881 45.7254 606.521 44.181V44.181Z" fill="#FFDD9A"/>
<path fill-rule="evenodd" clip-rule="evenodd" d="M576.716 65.1058C573.842 58.0406 578.591 53.0133 586.827 54.1885C581.286 57.5739 579.323 59.0767 582.107 65.8785L576.717 65.1058H576.716Z" fill="#FFDD9A"/>
<path fill-rule="evenodd" clip-rule="evenodd" d="M591.391 37.7409C592.916 40.3129 592.192 41.1702 594.99 42.4246C597.334 43.4757 599.583 43.1524 602.089 42.6108C596.941 52.2148 583.889 42.4738 591.391 37.7409V37.7409Z" fill="#FFDD9A"/>
<path d="M528 36.4736L275.897 36.9107L137.953 37.4694L0 38.4651L137.953 39.4627L275.897 40.0366L528 40.4736V36.4736Z" fill="#FFDD9A"/>
<path d="M1265.06 38.9957L1127.11 38.4219L875 38V42L1127.11 41.5629L1265.06 41.0005L1403 39.9914L1265.06 38.9957Z" fill="#FFDD9A"/>
</svg>
