<?xml version="1.0" standalone="no"?>
<!DOCTYPE svg PUBLIC "-//W3C//DTD SVG 20010904//EN"
 "http://www.w3.org/TR/2001/REC-SVG-20010904/DTD/svg10.dtd">
<svg version="1.0" xmlns="http://www.w3.org/2000/svg"
 width="1879.000000pt" height="1879.000000pt" viewBox="0 0 1879.000000 1879.000000"
 preserveAspectRatio="xMidYMid meet">
<metadata>
Created by potrace 1.14, written by Peter Selinger 2001-2017
</metadata>
<g transform="translate(0.000000,1879.000000) scale(0.100000,-0.100000)"
fill="#000000" stroke="none">
<path d="M9235 18779 c-22 -4 -53 -10 -68 -13 -159 -29 -333 -144 -427 -280
-83 -122 -147 -308 -168 -491 -13 -111 -6 -444 12 -570 68 -472 237 -981 463
-1389 24 -44 40 -82 36 -86 -4 -3 -34 -26 -66 -50 -85 -64 -190 -180 -268
-299 -68 -103 -162 -284 -194 -371 -42 -120 -67 -202 -89 -294 -26 -110 -37
-172 -52 -301 -18 -154 -7 -449 22 -589 2 -12 7 -36 10 -55 13 -80 34 -159 74
-280 34 -101 109 -273 157 -360 52 -93 154 -231 225 -303 38 -39 67 -72 65
-74 -2 -2 -21 -6 -43 -9 -21 -4 -46 -8 -54 -10 -8 -2 -28 -7 -45 -10 -187 -32
-457 -128 -676 -239 -128 -64 -286 -163 -398 -248 -35 -26 -67 -48 -71 -48
-16 0 -383 572 -616 960 -48 80 -93 152 -100 160 -6 8 -24 38 -39 65 -14 28
-39 70 -54 95 -32 53 -239 419 -301 535 -87 159 -310 615 -310 631 0 3 -12 31
-26 62 -69 152 -124 359 -124 470 1 87 13 140 55 224 110 225 311 343 565 334
172 -7 317 -74 457 -213 199 -197 254 -442 147 -656 -62 -123 -223 -282 -308
-304 -11 -3 -61 -8 -111 -10 -132 -7 -134 -9 -87 -96 22 -40 61 -112 87 -162
26 -49 60 -112 75 -140 15 -27 50 -93 77 -145 156 -297 224 -424 234 -434 12
-14 92 53 131 109 35 51 64 109 99 199 11 28 27 65 34 81 7 17 23 55 36 85 45
106 146 296 222 417 42 68 77 125 77 128 0 2 13 32 29 65 73 151 111 307 117
485 11 337 -106 635 -351 893 -166 176 -362 301 -588 377 -134 45 -267 67
-402 68 -232 2 -395 -37 -592 -139 -266 -137 -486 -357 -613 -612 -95 -191
-144 -399 -143 -607 0 -59 14 -228 19 -237 3 -4 7 -24 9 -45 10 -90 85 -340
150 -498 95 -231 280 -572 473 -870 171 -265 609 -913 778 -1150 24 -33 60
-85 82 -115 168 -240 241 -342 272 -385 20 -27 45 -64 55 -82 l18 -32 -28 -37
c-95 -124 -252 -395 -294 -507 -6 -16 -14 -26 -19 -24 -4 3 -104 48 -224 100
-119 53 -237 105 -262 116 -25 12 -67 31 -93 42 -27 12 -82 37 -123 56 -41 20
-93 43 -115 53 -22 10 -85 39 -140 65 -55 26 -116 54 -135 62 -107 49 -719
355 -860 430 -515 278 -852 496 -1009 656 -124 126 -169 225 -176 382 -5 112
12 193 60 292 101 205 342 346 575 337 386 -17 640 -231 642 -544 1 -72 -4
-126 -16 -175 -1 -5 -6 -26 -10 -45 -13 -55 -51 -132 -80 -162 -15 -15 -52
-44 -84 -64 -55 -34 -82 -59 -82 -75 0 -4 30 -24 68 -45 99 -55 124 -69 262
-147 69 -39 154 -86 190 -105 36 -20 67 -38 70 -41 3 -3 21 -14 40 -23 19 -10
53 -28 75 -40 22 -13 72 -41 110 -62 39 -21 84 -47 102 -58 l32 -19 12 23 c37
69 41 188 13 343 -9 50 -18 101 -20 115 -7 45 -14 85 -19 110 -3 14 -8 52 -11
85 -4 33 -8 63 -10 66 -1 3 -6 68 -9 145 -3 76 -8 186 -10 244 -10 249 -89
489 -222 679 -64 90 -212 236 -302 295 -159 106 -375 190 -541 212 -19 2 -62
8 -95 12 -69 9 -227 8 -300 -2 -27 -4 -65 -9 -84 -12 -51 -7 -146 -32 -236
-64 -265 -93 -503 -284 -650 -519 -65 -105 -149 -305 -170 -407 -29 -139 -37
-206 -40 -315 -7 -304 86 -584 281 -844 87 -116 268 -294 394 -386 302 -223
594 -383 1155 -634 82 -37 509 -219 680 -290 77 -31 154 -63 170 -70 62 -27
480 -196 740 -300 149 -59 271 -109 273 -111 2 -1 -1 -44 -7 -96 -6 -51 -13
-113 -16 -138 -5 -55 -6 -349 0 -407 4 -48 4 -48 -90 -59 -33 -3 -68 -8 -78
-10 -10 -2 -48 -6 -85 -10 -36 -3 -73 -7 -82 -9 -9 -2 -50 -6 -91 -10 -40 -4
-76 -8 -79 -10 -3 -1 -45 -6 -93 -10 -48 -3 -96 -8 -105 -10 -9 -1 -51 -6 -92
-10 -41 -4 -82 -9 -91 -10 -9 -2 -58 -6 -110 -10 -52 -3 -105 -8 -119 -10 -14
-2 -63 -6 -110 -10 -47 -3 -96 -8 -110 -10 -14 -2 -70 -7 -125 -10 -55 -4
-116 -8 -135 -10 -19 -2 -75 -6 -125 -10 -49 -3 -115 -8 -145 -10 -48 -4 -135
-9 -340 -20 -395 -22 -978 -22 -1090 0 -13 3 -42 7 -65 10 -76 11 -189 46
-247 77 -104 55 -202 173 -249 298 -34 91 -34 245 -1 342 54 156 168 281 327
357 169 81 316 108 460 84 170 -29 316 -141 390 -298 80 -172 87 -245 31 -359
-20 -41 -36 -84 -36 -96 0 -24 -28 -24 345 -5 430 22 537 27 585 30 25 2 74 4
109 4 l63 1 -7 46 c-12 85 -68 163 -239 336 -120 123 -240 261 -297 344 -18
27 -37 54 -41 59 -4 6 -28 38 -53 72 -163 227 -389 398 -625 472 -41 13 -86
27 -100 31 -24 8 -40 11 -135 26 -77 12 -259 10 -353 -3 -329 -45 -626 -193
-852 -423 -104 -107 -168 -195 -232 -325 -50 -99 -74 -173 -103 -310 -16 -73
-15 -280 1 -374 17 -99 59 -249 75 -265 5 -6 9 -17 9 -25 0 -23 88 -190 136
-257 87 -124 253 -281 370 -350 112 -67 305 -153 377 -168 12 -3 58 -14 102
-25 183 -47 379 -66 665 -66 186 1 467 12 480 20 3 2 41 6 85 10 44 3 94 8
110 10 17 2 57 7 90 10 33 4 67 8 75 10 8 1 40 6 70 10 30 3 66 8 80 10 14 2
45 7 70 10 25 3 57 8 73 11 42 6 78 12 122 18 128 18 452 67 465 71 8 2 37 6
63 10 26 3 71 10 100 16 29 5 68 12 87 15 19 3 46 7 60 9 14 3 122 21 240 40
118 20 226 38 240 41 14 3 115 20 225 39 110 19 214 37 232 41 29 6 33 4 39
-22 15 -64 120 -316 179 -430 35 -67 93 -168 130 -224 l66 -103 -119 -121
c-66 -67 -175 -179 -243 -251 -269 -281 -612 -619 -753 -740 -33 -27 -73 -63
-90 -78 -50 -45 -297 -230 -372 -279 -93 -61 -234 -132 -314 -158 -89 -30
-217 -34 -292 -10 -76 23 -213 116 -277 186 -105 114 -152 255 -147 438 4 122
16 176 66 281 66 139 177 258 279 301 171 72 452 32 569 -79 45 -43 68 -90 81
-168 13 -75 39 -149 52 -149 9 0 714 574 724 590 7 11 -100 90 -181 134 -91
50 -181 77 -304 91 -98 12 -127 16 -175 26 -47 11 -71 22 -209 99 -222 124
-530 147 -767 57 -353 -135 -632 -468 -734 -876 -57 -227 -54 -430 9 -691 9
-35 59 -158 76 -188 11 -18 20 -37 20 -43 0 -11 59 -103 119 -184 61 -83 211
-230 304 -299 197 -145 421 -218 662 -216 125 1 161 5 274 29 224 49 478 167
696 324 174 125 269 211 625 567 315 314 380 382 722 755 125 136 144 155 150
155 6 0 150 -111 181 -140 5 -4 -29 -66 -75 -136 -76 -117 -342 -530 -378
-588 -8 -13 -30 -48 -48 -77 -18 -30 -85 -136 -150 -236 -64 -101 -139 -218
-167 -260 -53 -84 -282 -435 -320 -493 -60 -89 -90 -208 -83 -325 12 -188 155
-330 368 -365 69 -12 136 -10 249 6 42 6 44 5 37 -17 -41 -146 -65 -291 -70
-424 -3 -71 22 -194 52 -259 48 -103 131 -173 256 -215 77 -27 150 -36 288
-34 l117 2 -19 -42 c-39 -87 -49 -114 -73 -187 -72 -221 -57 -399 42 -512 89
-102 287 -179 521 -204 108 -11 126 -12 185 -13 l60 -2 -40 -37 c-22 -20 -67
-59 -99 -87 -33 -27 -64 -55 -70 -60 -6 -6 -63 -55 -126 -109 -63 -54 -140
-120 -170 -146 -30 -26 -90 -78 -132 -115 l-77 -67 126 -251 c69 -139 412
-826 761 -1527 459 -922 637 -1269 641 -1255 4 11 345 697 758 1525 l751 1505
-32 30 c-17 17 -116 104 -221 194 -104 90 -217 187 -250 216 -33 29 -76 65
-95 81 -19 16 -53 46 -75 66 l-40 38 45 0 c299 4 566 76 690 187 153 136 157
381 11 705 l-29 65 132 -1 c329 -1 505 109 562 351 16 66 21 237 9 293 -3 14
-8 45 -11 69 -3 24 -16 87 -30 140 -13 52 -24 97 -24 99 0 2 19 1 43 -2 172
-25 280 -14 392 39 134 64 212 177 222 321 11 159 -17 229 -208 519 -127 193
-226 346 -349 540 -44 70 -385 603 -453 710 -29 45 -90 139 -136 210 l-84 129
33 26 c18 14 59 46 91 72 32 27 62 48 67 48 7 0 56 -50 192 -200 100 -110 193
-211 240 -260 30 -32 93 -97 138 -146 46 -49 157 -163 247 -254 476 -481 688
-653 990 -800 242 -118 391 -158 620 -167 129 -5 165 -2 260 16 173 35 344
115 480 224 116 94 249 237 316 342 46 72 63 100 65 105 0 3 17 40 38 83 74
157 114 349 110 537 -2 139 -8 187 -39 311 -41 163 -94 283 -192 431 -205 310
-529 501 -853 502 -190 0 -334 -44 -560 -171 -57 -33 -155 -57 -275 -68 -96
-9 -147 -21 -232 -55 -68 -27 -172 -90 -237 -143 l-29 -24 78 -64 c43 -35 133
-109 200 -164 67 -55 141 -116 165 -135 24 -19 97 -79 162 -133 65 -53 122
-97 127 -97 12 0 38 66 45 115 17 113 37 155 96 209 73 66 203 106 344 107
167 2 258 -33 362 -140 62 -62 87 -100 138 -206 90 -186 82 -439 -18 -618 -60
-108 -212 -231 -336 -274 -223 -76 -523 58 -980 440 -190 158 -525 482 -844
817 -65 69 -175 182 -244 251 l-124 127 29 43 c129 188 266 464 338 681 17 52
21 57 44 54 29 -4 157 -26 296 -51 108 -19 119 -21 265 -46 63 -11 126 -22
140 -24 14 -2 66 -11 115 -19 50 -9 108 -18 130 -22 22 -3 103 -16 180 -29 77
-13 163 -27 190 -30 28 -4 57 -8 65 -10 8 -2 38 -7 65 -10 28 -4 57 -8 65 -10
8 -3 35 -7 60 -10 25 -3 55 -7 67 -9 11 -3 43 -7 70 -11 82 -11 107 -15 133
-20 27 -5 51 -8 180 -25 47 -6 96 -13 110 -15 14 -2 50 -7 80 -10 30 -3 66 -8
80 -10 14 -2 57 -7 97 -10 40 -4 85 -8 100 -10 158 -19 629 -26 783 -12 296
28 507 81 716 183 185 90 330 206 459 368 51 62 153 232 161 266 0 3 6 19 13
35 25 57 61 178 78 259 19 87 24 311 10 401 -24 154 -127 394 -217 508 -34 43
-152 175 -167 187 -10 8 -41 33 -68 56 -368 301 -880 406 -1314 269 -252 -80
-478 -255 -661 -511 -148 -208 -196 -266 -381 -458 -64 -67 -128 -135 -142
-152 -59 -70 -109 -210 -76 -211 8 0 73 -3 144 -7 174 -9 265 -14 420 -21 72
-4 159 -8 195 -10 36 -2 125 -7 198 -10 156 -7 153 -11 96 108 -57 120 -47
213 41 379 63 122 151 203 278 256 53 22 79 26 182 29 146 3 243 -20 387 -90
194 -96 325 -275 344 -469 8 -87 8 -83 0 -131 -26 -158 -142 -325 -275 -395
-76 -41 -198 -74 -326 -88 -202 -21 -657 -21 -1070 1 -186 10 -315 17 -355 20
-25 2 -85 6 -135 9 -49 4 -108 9 -130 11 -22 2 -85 7 -140 10 -55 4 -111 8
-125 10 -14 2 -61 6 -105 10 -44 3 -96 8 -115 10 -19 3 -64 7 -100 10 -36 3
-132 13 -215 21 -82 8 -172 17 -200 20 -27 3 -63 7 -80 9 -16 2 -59 7 -95 10
-36 4 -76 8 -90 11 -14 2 -50 6 -80 10 -30 3 -65 7 -76 9 -12 2 -48 7 -80 11
-33 3 -66 8 -74 9 -11 1 -15 13 -13 41 8 205 2 404 -18 557 -6 49 -9 90 -7 91
1 2 136 56 298 121 162 64 314 126 337 136 23 10 47 19 53 19 5 0 18 5 28 10
9 6 139 60 287 121 249 102 732 306 857 363 29 13 91 40 138 61 466 206 879
448 1134 665 121 102 349 365 374 430 3 8 20 40 38 71 54 96 113 264 129 369
19 125 23 178 20 280 -9 333 -149 684 -362 905 -42 44 -125 120 -165 150 -36
28 -170 107 -228 134 -209 97 -510 147 -720 120 -30 -4 -73 -10 -95 -12 -190
-22 -458 -137 -614 -262 -229 -183 -400 -475 -437 -740 -2 -16 -6 -41 -9 -55
-5 -26 -12 -138 -20 -355 -3 -71 -7 -141 -9 -155 -3 -14 -7 -50 -10 -80 -3
-30 -10 -77 -16 -105 -5 -27 -11 -66 -14 -85 -3 -19 -12 -73 -21 -119 -28
-145 -25 -243 9 -325 l15 -37 58 32 c32 18 74 41 93 52 32 19 195 110 625 350
93 52 171 99 172 104 5 15 -28 47 -79 76 -86 50 -135 117 -163 222 -49 188
-35 352 43 485 57 100 195 202 327 243 112 35 284 53 350 36 17 -4 44 -10 60
-12 87 -13 219 -89 305 -176 138 -139 191 -322 155 -536 -8 -48 -43 -128 -79
-182 -144 -212 -619 -519 -1461 -942 -307 -155 -381 -191 -620 -302 -49 -22
-124 -57 -165 -76 -41 -19 -181 -82 -310 -140 -129 -57 -253 -113 -275 -122
-46 -21 -86 -39 -166 -74 l-56 -25 -47 97 c-81 167 -152 286 -248 418 -21 29
-38 56 -38 61 0 7 78 119 216 312 38 52 317 452 462 660 200 289 583 872 682
1041 124 208 246 447 313 609 77 189 145 424 162 561 3 21 7 58 10 82 12 90 7
267 -11 372 -16 93 -51 223 -66 239 -4 6 -8 16 -8 23 0 21 -70 161 -116 234
-48 75 -145 191 -212 253 -98 90 -120 109 -197 160 -285 191 -589 257 -935
202 -245 -39 -518 -175 -715 -357 -89 -82 -96 -90 -177 -198 -115 -152 -197
-337 -233 -531 -4 -19 -9 -96 -10 -170 -7 -272 59 -483 244 -780 92 -148 179
-324 257 -518 47 -116 89 -198 127 -248 37 -49 105 -100 116 -88 9 10 25 40
184 339 58 110 155 292 216 405 126 237 126 230 2 231 -97 1 -111 4 -172 35
-52 26 -152 117 -206 189 -32 43 -82 135 -89 166 -2 11 -7 29 -10 42 -4 12 -8
60 -9 107 -3 96 21 189 73 277 40 67 55 86 132 162 142 140 275 200 455 206
163 5 293 -36 402 -128 174 -147 244 -348 198 -567 -48 -227 -255 -688 -530
-1180 -23 -41 -54 -97 -70 -125 -37 -68 -102 -180 -135 -235 -15 -25 -46 -79
-70 -120 -49 -83 -269 -445 -305 -500 -12 -19 -62 -98 -110 -175 -81 -129
-207 -323 -292 -452 -19 -29 -39 -53 -44 -53 -5 0 -37 22 -72 49 -311 243
-776 444 -1177 507 -19 3 -36 7 -37 8 -1 1 26 31 60 67 166 173 299 404 388
669 21 66 65 231 73 280 3 19 8 46 10 60 83 459 -2 991 -222 1400 -95 178
-247 369 -352 445 -85 62 -82 57 -67 85 7 14 39 72 70 131 53 99 150 314 183
404 74 200 158 472 178 575 3 14 7 34 10 45 12 50 45 235 51 280 19 162 22
214 22 345 0 180 -10 275 -43 410 -82 333 -280 538 -579 602 -62 13 -306 18
-360 7z m198 -3361 c76 -77 211 -332 261 -493 31 -97 36 -118 57 -230 27 -149
30 -452 4 -527 -2 -7 -6 -29 -9 -48 -29 -189 -130 -438 -249 -615 -65 -95 -96
-122 -125 -106 -17 9 -122 143 -122 155 0 2 -18 36 -40 74 -126 219 -202 512
-203 782 -1 189 26 358 85 535 52 156 181 395 251 466 40 40 57 41 90 7z m252
-2873 c40 -6 165 -29 240 -46 183 -39 469 -155 627 -255 21 -13 40 -24 42 -24
3 0 36 -21 73 -47 326 -226 574 -504 752 -845 109 -208 198 -471 226 -668 4
-24 8 -47 10 -51 18 -28 26 -443 12 -574 -108 -1009 -866 -1831 -1857 -2013
-174 -32 -269 -40 -455 -36 -187 3 -209 5 -375 33 -205 35 -446 117 -650 224
-93 48 -295 177 -335 214 -11 10 -41 34 -67 53 -77 57 -269 257 -354 370 -178
235 -305 484 -384 756 -37 131 -62 264 -80 424 -8 75 -5 423 4 470 2 14 7 48
11 75 3 28 10 68 15 90 5 22 11 51 13 65 39 212 161 510 299 729 124 197 209
296 449 523 54 51 246 186 344 243 263 151 608 266 880 291 39 4 72 8 74 10 6
6 440 -4 486 -11z m-969 -5038 c70 -18 145 -79 180 -147 27 -53 28 -157 3
-208 -41 -83 -143 -152 -266 -182 l-53 -12 0 -381 0 -382 284 3 c264 2 284 1
291 -15 4 -10 25 -67 47 -128 55 -149 90 -244 128 -345 18 -47 35 -95 37 -108
8 -33 20 -35 31 -4 18 49 180 486 202 545 l21 57 285 0 284 0 0 378 0 378 -52
14 c-129 32 -238 110 -274 195 -35 85 -6 201 68 272 76 73 217 100 302 59 53
-27 195 -169 283 -283 11 -15 42 -55 67 -88 25 -33 49 -64 53 -70 20 -25 158
-223 238 -340 48 -71 103 -151 121 -176 l34 -47 -55 -82 c-30 -45 -55 -86 -55
-90 0 -5 -3 -10 -7 -12 -5 -1 -42 -55 -83 -118 -41 -63 -78 -117 -81 -120 -3
-3 -8 -9 -10 -15 -2 -5 -92 -143 -200 -305 -239 -360 -676 -1021 -944 -1425
-109 -165 -201 -304 -205 -308 -4 -4 -98 131 -210 300 -113 169 -359 542 -549
828 -189 286 -450 680 -579 875 -129 195 -252 381 -273 412 l-38 58 33 47
c265 390 340 497 445 633 128 166 256 296 320 326 44 21 121 25 177 11z m758
-4607 c49 -33 92 -60 96 -60 5 0 10 -3 12 -7 2 -5 108 -77 236 -162 127 -85
232 -157 232 -160 0 -3 -10 -22 -22 -41 -12 -19 -27 -44 -33 -55 -7 -11 -85
-144 -175 -295 -89 -151 -174 -296 -189 -322 -83 -147 -246 -418 -250 -418 -3
0 -46 70 -96 156 -49 85 -97 167 -106 182 -25 41 -350 593 -369 627 -10 17
-36 61 -59 99 l-40 70 332 222 c183 123 335 223 338 223 3 1 45 -26 93 -59z"/>
<path d="M9108 12295 c-1 -1 -28 -5 -58 -9 -30 -3 -66 -8 -80 -11 -14 -3 -47
-10 -74 -15 -143 -29 -413 -139 -561 -230 -253 -155 -531 -429 -598 -589 -22
-51 -12 -69 40 -77 200 -30 615 96 900 274 271 168 551 457 587 604 5 21 2 30
-13 38 -18 9 -135 22 -143 15z"/>
<path d="M9552 12288 c-18 -5 -35 -15 -38 -23 -10 -24 55 -140 123 -222 252
-305 612 -533 995 -633 139 -36 154 -39 249 -47 87 -7 165 2 172 20 8 22 -20
88 -70 161 -50 74 -232 264 -318 333 -231 185 -549 335 -830 392 -115 23 -235
31 -283 19z"/>
<path d="M9358 12153 c-49 -55 -123 -229 -163 -383 -19 -74 -22 -85 -41 -193
-9 -51 -18 -195 -18 -292 0 -107 10 -271 18 -284 2 -3 7 -28 10 -56 28 -217
164 -545 226 -545 50 0 140 184 195 400 19 71 19 75 30 140 4 25 9 53 11 64
10 56 18 175 18 281 0 115 -10 270 -18 284 -2 3 -7 29 -10 56 -29 217 -164
545 -225 545 -10 0 -25 -8 -33 -17z"/>
<path d="M7793 11243 c-75 -9 -63 -67 44 -210 158 -212 398 -406 668 -538 112
-55 288 -122 367 -140 207 -46 378 -55 403 -22 12 16 11 26 -6 65 -70 163
-341 429 -592 580 -177 107 -421 206 -587 238 -14 2 -47 9 -75 14 -58 11 -176
18 -222 13z"/>
<path d="M10835 11239 c-33 -4 -78 -10 -100 -14 -48 -8 -272 -71 -300 -84 -11
-6 -63 -28 -115 -51 -106 -46 -222 -111 -320 -178 -237 -164 -472 -421 -500
-548 -10 -42 12 -52 117 -52 230 0 568 113 837 280 229 142 468 376 556 544
17 31 30 62 30 70 0 32 -89 47 -205 33z"/>
<path d="M7585 11129 c-84 -100 -174 -375 -200 -609 -3 -30 -8 -71 -11 -90 -5
-40 -5 -283 0 -320 2 -14 7 -56 11 -95 4 -38 8 -72 10 -75 2 -3 6 -23 9 -45
27 -172 130 -437 192 -492 21 -19 28 -21 45 -10 64 39 177 321 205 515 3 20 7
43 9 49 19 56 27 429 12 543 -8 58 -23 152 -31 185 -2 11 -9 41 -15 66 -40
177 -152 409 -196 409 -7 0 -25 -14 -40 -31z"/>
<path d="M11109 11118 c-82 -111 -171 -392 -196 -614 -15 -132 -8 -479 11
-535 3 -8 7 -33 10 -57 3 -24 11 -62 17 -85 6 -23 13 -52 15 -64 8 -44 62
-190 95 -257 44 -89 83 -130 110 -115 55 29 155 263 195 454 32 153 42 249 42
420 0 308 -55 570 -170 802 -18 37 -69 93 -84 93 -7 0 -28 -19 -45 -42z"/>
<path d="M9138 10235 c-2 -2 -28 -5 -59 -8 -239 -24 -569 -150 -802 -307 -56
-38 -111 -77 -122 -87 -11 -10 -33 -29 -50 -41 -124 -96 -302 -302 -348 -404
-22 -47 -21 -65 3 -78 29 -15 183 -13 260 4 14 3 48 10 75 15 97 18 302 92
430 156 283 140 519 334 682 561 51 71 84 140 76 161 -2 7 -19 15 -36 18 -44
7 -106 13 -109 10z"/>
<path d="M9551 10229 c-25 -5 -48 -14 -52 -20 -27 -45 112 -243 279 -398 92
-85 219 -185 260 -204 12 -5 22 -14 22 -19 0 -4 5 -8 11 -8 6 0 23 -8 37 -18
53 -37 181 -100 295 -146 181 -72 384 -118 519 -118 93 0 119 12 112 48 -17
91 -190 305 -367 451 -221 184 -490 320 -777 393 -93 23 -109 26 -196 35 -38
4 -76 8 -84 10 -8 1 -35 -1 -59 -6z"/>
<path d="M9357 10124 c-68 -73 -156 -306 -191 -509 -3 -16 -8 -40 -10 -52 -20
-99 -28 -360 -14 -493 14 -142 59 -350 98 -455 44 -116 122 -245 148 -245 21
0 65 59 101 134 186 392 206 976 46 1399 -47 126 -100 218 -135 237 -15 8 -24
5 -43 -16z"/>
<path d="M7771 9179 c-44 -9 -52 -24 -36 -69 54 -152 323 -424 571 -578 246
-153 563 -264 790 -279 105 -7 159 1 168 23 15 40 -71 176 -195 308 -240 256
-544 442 -884 540 -165 47 -341 71 -414 55z"/>
<path d="M10918 9185 c-2 -2 -30 -5 -63 -8 -178 -17 -386 -81 -590 -182 -100
-49 -267 -152 -319 -196 -12 -9 -41 -34 -66 -54 -162 -134 -315 -313 -355
-418 -14 -37 -15 -51 -6 -60 13 -13 187 -17 258 -5 307 52 662 217 909 423
159 133 326 330 359 424 12 36 12 42 -1 56 -9 8 -27 15 -42 16 -15 1 -39 2
-54 3 -15 2 -29 2 -30 1z"/>
</g>
</svg>
