<svg width="35" height="32" viewBox="0 0 35 32" fill="none" xmlns="http://www.w3.org/2000/svg">
<path fill-rule="evenodd" clip-rule="evenodd" d="M24.8776 10.7348C24.844 11.1361 24.7545 10.8351 25.0298 11.1422C27.4008 9.04447 32.3055 12.0066 29.8797 15.708C28.9622 17.108 27.4658 17.4385 25.8658 17.2155C23.7416 16.9195 23.0116 17.0257 21.258 17.323C21.7427 16.9461 21.7407 17.0846 22.1843 16.8404C22.5236 16.6537 22.8287 16.3437 23.0307 15.8962C23.4265 15.0188 23.1158 14.2769 22.7528 13.8171C22.246 16.118 21.7071 15.3331 20.3548 15.9067C19.0456 16.4618 18.9519 17.7675 18.3916 19.2075L18.614 19.0476C18.6264 19.0371 18.8884 18.8061 18.903 18.7919C19.4581 18.2551 19.5403 17.9958 20.2928 17.7543C19.0704 18.8172 17.6916 19.7949 17.3317 22.0389C17.0402 23.8573 17.5716 25.3766 18.4015 26.5703C20.2063 29.166 24.1282 30.7538 27.2671 27.7705L26.4015 27.0542C27.0914 28.9778 22.3215 30.6862 18.9081 26.6166C17.9 25.4149 17.5376 24.2069 17.5877 22.6454C17.6568 20.4935 18.8458 19.5667 20.0161 18.3371L19.8736 19.0165C21.338 18.1119 21.567 19.5598 22.6603 20.15C23.7614 20.7443 24.7982 20.122 25.333 19.019C24.6703 19.1542 23.9485 19.3871 23.0308 18.7169C21.5356 17.6247 21.8076 18.0336 20.5454 18.1274C23.7541 16.0471 27.4825 19.2199 29.9347 16.1539C32.0291 13.5355 30.1648 10.3263 27.3129 10.1849C26.2528 10.1323 25.6189 10.5148 24.8774 10.7347L24.8776 10.7348Z" fill="#FFDD9A"/>
<path fill-rule="evenodd" clip-rule="evenodd" d="M6.64922 16.3027C7.34668 14.512 7.82455 14.278 9.51259 14.9325C12.166 15.9611 12.0473 12.3425 9.22312 12.6329C7.3922 12.8214 6.01907 14.7161 6.64922 16.3027Z" fill="#FFDD9A"/>
<path fill-rule="evenodd" clip-rule="evenodd" d="M24.9376 10.2423C25.8052 9.28827 25.7254 9.17945 25.3271 8.22758L24.7546 7.9606C24.5253 8.02638 22.7109 8.42404 22.5402 8.392C21.5769 8.21137 21.3551 7.08498 21.1778 6.47419C20.7132 7.64442 20.9186 8.69435 21.6312 9.48242C22.795 10.7695 23.9764 10.4021 24.9376 10.2423Z" fill="#FFDD9A"/>
<path fill-rule="evenodd" clip-rule="evenodd" d="M6.16183 8.50845L5.99281 8.87091C6.02602 9.57121 5.53333 11.1579 7.47804 12.1526C8.22967 12.5371 8.82443 12.5541 9.46266 12.3824C10.2825 12.162 10.5267 11.7225 10.6795 10.7828C9.1112 8.86756 7.28771 11.9689 6.40969 9.2753C6.2582 8.81095 6.41421 8.98231 6.16183 8.50845Z" fill="#FFDD9A"/>
<path fill-rule="evenodd" clip-rule="evenodd" d="M21.3798 14.1771C21.79 13.9729 22.0389 13.3979 22.2401 13.1446C23.31 11.797 24.0038 13.521 25.9467 13.0989C27.4675 10.6748 23.6224 9.83795 22.0266 11.9377C21.4572 12.6871 21.4966 13.4416 21.3801 14.177L21.3798 14.1771Z" fill="#FFDD9A"/>
<path fill-rule="evenodd" clip-rule="evenodd" d="M21.6821 23.9076C20.4558 25.1054 20.6515 26.4036 21.5267 27.3822C22.6711 28.6617 23.6689 28.4739 24.9029 28.3192C23.8052 27.9745 22.5267 27.7165 22.4429 26.469C22.4038 25.8886 22.6184 25.2681 23.0709 24.9162C23.4907 24.5901 23.8913 24.6913 24.2418 24.6532C24.5344 24.6214 24.322 24.6911 24.5858 24.5728C23.5303 23.5298 22.7516 23.3271 21.6819 23.9075L21.6821 23.9076Z" fill="#FFDD9A"/>
<path fill-rule="evenodd" clip-rule="evenodd" d="M22.4431 23.2444C25.5622 20.4693 19.1966 16.8041 18.1324 22.0618C19.0047 21.4536 18.8811 20.3982 20.6878 20.9769C22.3538 21.5107 22.2395 22.6433 22.3128 22.9353C22.4063 23.3088 22.191 22.8955 22.4432 23.2442L22.4431 23.2444Z" fill="#FFDD9A"/>
<path fill-rule="evenodd" clip-rule="evenodd" d="M14.2021 25.5603C14.6978 22.7739 16.5964 25.8868 17.8345 26.6429C17.7829 26.4757 17.7944 26.508 17.6979 26.3029L17.5923 26.0989C16.8387 24.6998 16.4496 23.3652 15.6233 22.9396C14.0561 22.132 12.5663 24.3537 14.2018 25.5604L14.2021 25.5603Z" fill="#FFDD9A"/>
<path fill-rule="evenodd" clip-rule="evenodd" d="M16.7802 22.229C16.8802 21.3043 16.2596 20.1461 15.3693 19.4381C13.9645 18.3207 13.7269 18.5093 13.6294 16.8314C11.4814 19.5509 14.4708 19.749 16.7802 22.229Z" fill="#FFDD9A"/>
<path fill-rule="evenodd" clip-rule="evenodd" d="M3.28849 15.1345C4.48368 13.9986 4.71445 13.1416 6.48824 13.6851C6.90434 12.8797 7.09845 12.9146 7.60734 12.34C7.08169 12.2338 6.5295 11.9908 6.04389 11.6555C4.85728 12.2665 3.32165 13.0257 3.28859 15.1343L3.28849 15.1345Z" fill="#FFDD9A"/>
<path fill-rule="evenodd" clip-rule="evenodd" d="M18.4657 10.0012C18.7725 11.3795 20.0761 12.2923 21.8424 12.4411L22.1399 12.2334C22.6385 11.8069 22.53 11.7075 23.3397 11.3004C22.8256 11.0391 22.2885 10.7246 21.9311 10.4528C20.3503 11.038 20.3709 11.2416 18.4657 10.0012Z" fill="#FFDD9A"/>
<path fill-rule="evenodd" clip-rule="evenodd" d="M10.1854 12.4579C11.4167 12.7355 17.5112 11.7612 18.16 18.7772C18.2218 19.4462 17.9111 19.1281 18.5113 19.428C18.3884 14.6011 15.6155 12.0994 10.9541 12.2059C10.1108 12.2252 10.6498 12.0495 10.1853 12.4581L10.1854 12.4579Z" fill="#FFDD9A"/>
<path fill-rule="evenodd" clip-rule="evenodd" d="M17.9433 16.9062C18.168 15.7897 17.7043 14.9395 18.3582 14.1071L19.3368 14.2753C19.2198 12.8892 17.4102 12.5452 17.0271 13.8331C16.8635 14.383 17.5749 16.3732 17.9433 16.9062Z" fill="#FFDD9A"/>
<path fill-rule="evenodd" clip-rule="evenodd" d="M14.1549 9.94558C12.9705 11.0455 13.4316 12.4362 15.1176 12.9475C14.3573 11.8013 14.1153 11.337 15.2588 10.2796L14.1551 9.94568L14.1549 9.94558Z" fill="#FFDD9A"/>
<path fill-rule="evenodd" clip-rule="evenodd" d="M14.4359 16.2033C14.9589 15.8457 14.8968 15.6162 15.5461 15.6257C16.0901 15.6335 16.4929 15.897 16.9253 16.2252C16.7975 13.9197 13.4201 14.6228 14.4359 16.2033Z" fill="#FFDD9A"/>
</svg>
