<svg width="229" height="5" viewBox="0 0 229 5" fill="none" xmlns="http://www.w3.org/2000/svg">
<path d="M112.511 1.44396C111.903 1.44396 111.408 1.93652 111.408 2.54396C111.408 3.1522 111.904 3.64799 112.511 3.64799C113.11 3.64799 113.605 3.1522 113.605 2.54396C113.605 1.93612 113.11 1.44396 112.511 1.44396ZM112.511 4.51662C111.424 4.51662 110.537 3.63065 110.537 2.54436C110.537 1.45847 111.424 0.57573 112.511 0.57573C113.598 0.57573 114.476 1.45847 114.476 2.54436C114.476 3.63065 113.597 4.51662 112.511 4.51662V4.51662Z" fill="#FFDD9A"/>
<path d="M109 2L56.956 2.10926L28.4789 2.24893L0 2.49786L28.4789 2.74727L56.956 2.89074L109 3V2Z" fill="#FFDD9A"/>
<path d="M199.478 2.24893L169.956 2.10546L116 2V3L169.956 2.89074L199.478 2.75012L229 2.49786L199.478 2.24893Z" fill="#FFDD9A"/>
</svg>
